<svg width="20" height="20" viewBox="0 0 20 20" fill="none" xmlns="http://www.w3.org/2000/svg">
<path d="M14.1666 15C14.6086 15 15.0325 15.1756 15.3451 15.4881C15.6577 15.8007 15.8333 16.2246 15.8333 16.6667C15.8333 17.1087 15.6577 17.5326 15.3451 17.8452C15.0325 18.1577 14.6086 18.3333 14.1666 18.3333C13.7246 18.3333 13.3006 18.1577 12.9881 17.8452C12.6755 17.5326 12.4999 17.1087 12.4999 16.6667C12.4999 15.7417 13.2416 15 14.1666 15ZM0.833252 1.66666H3.55825L4.34159 3.33332H16.6666C16.8876 3.33332 17.0996 3.42112 17.2558 3.5774C17.4121 3.73368 17.4999 3.94564 17.4999 4.16666C17.4999 4.30832 17.4583 4.44999 17.3999 4.58332L14.4166 9.97499C14.1333 10.4833 13.5833 10.8333 12.9583 10.8333H6.74992L5.99992 12.1917L5.97492 12.2917C5.97492 12.3469 5.99687 12.3999 6.03594 12.439C6.07501 12.478 6.128 12.5 6.18325 12.5H15.8333V14.1667H5.83325C5.39122 14.1667 4.9673 13.9911 4.65474 13.6785C4.34218 13.3659 4.16659 12.942 4.16659 12.5C4.16659 12.2083 4.24159 11.9333 4.36659 11.7L5.49992 9.65832L2.49992 3.33332H0.833252V1.66666ZM5.83325 15C6.27528 15 6.6992 15.1756 7.01176 15.4881C7.32432 15.8007 7.49992 16.2246 7.49992 16.6667C7.49992 17.1087 7.32432 17.5326 7.01176 17.8452C6.6992 18.1577 6.27528 18.3333 5.83325 18.3333C5.39122 18.3333 4.9673 18.1577 4.65474 17.8452C4.34218 17.5326 4.16659 17.1087 4.16659 16.6667C4.16659 15.7417 4.90825 15 5.83325 15ZM13.3333 9.16666L15.6499 4.99999H5.11659L7.08325 9.16666H13.3333Z" fill="white"/>
</svg>
