<svg width="17" height="21" viewBox="0 0 17 21" fill="none" xmlns="http://www.w3.org/2000/svg">
<g clip-path="url(#clip0_34_735)">
<path d="M14.4214 1.56102C13.4961 0.506359 11.8235 0.0541992 9.68368 0.0541992H3.47337C3.26164 0.0541666 3.05685 0.129684 2.89584 0.267167C2.73483 0.404651 2.62815 0.595077 2.59501 0.804191L0.00915175 17.2043C-0.0422467 17.5277 0.208171 17.8206 0.535953 17.8206H4.36998L5.33287 11.7131L5.30299 11.9044C5.37159 11.4727 5.74081 11.1543 6.17803 11.1543H7.99995C11.5791 11.1543 14.3817 9.7005 15.2003 5.49506C15.2246 5.37068 15.2457 5.24962 15.2639 5.13135C15.1605 5.07664 15.1605 5.07664 15.2639 5.13135C15.5076 3.57698 15.2622 2.51893 14.4214 1.56102Z" fill="#27346A"/>
<path d="M6.79992 4.57142C6.90471 4.52143 7.01937 4.49556 7.13547 4.49571H12.0042C12.5808 4.49571 13.1185 4.53323 13.61 4.61232C13.7475 4.63427 13.8843 4.66044 14.0201 4.69082C14.2127 4.73332 14.4031 4.78534 14.5906 4.84667C14.8322 4.92735 15.0571 5.02132 15.2639 5.13135C15.5076 3.57639 15.2622 2.51893 14.4214 1.56102C13.4956 0.506359 11.8235 0.0541992 9.68368 0.0541992H3.47284C3.03555 0.0541992 2.66354 0.372551 2.59501 0.804191L0.00915212 17.2037C-0.0422463 17.5277 0.208172 17.8201 0.535422 17.8201H4.36998L6.36768 5.15181C6.38734 5.02729 6.43695 4.90942 6.51224 4.80832C6.58754 4.70722 6.68626 4.62592 6.79992 4.57142Z" fill="#27346A"/>
<path d="M15.2001 5.49505C14.3814 9.6999 11.579 11.1543 7.99974 11.1543H6.17729C5.74007 11.1543 5.37078 11.4727 5.30285 11.9044L4.10495 19.4983C4.06019 19.7813 4.27906 20.0378 4.56541 20.0378H7.7974C7.98254 20.0377 8.16158 19.9716 8.30234 19.8513C8.44309 19.7311 8.53632 19.5645 8.56525 19.3817L8.59673 19.217L9.20588 15.3564L9.24512 15.143C9.27405 14.9602 9.36727 14.7936 9.50801 14.6734C9.64875 14.5531 9.82778 14.487 10.0129 14.4869H10.4966C13.6275 14.4869 16.079 13.215 16.7954 9.53634C17.0944 7.99904 16.9397 6.71554 16.1486 5.814C15.9087 5.54094 15.6108 5.31543 15.2637 5.13135C15.2449 5.25021 15.2245 5.37068 15.2001 5.49505Z" fill="#2790C3"/>
<path d="M14.4068 4.78972C14.2791 4.75245 14.1503 4.71945 14.0204 4.69077C13.8845 4.66088 13.7477 4.63489 13.6102 4.61281C13.1183 4.53319 12.5809 4.49561 12.0039 4.49561H7.1357C7.01953 4.49541 6.90482 4.5215 6.80015 4.57191C6.68634 4.62622 6.58749 4.70746 6.51216 4.80859C6.43683 4.90973 6.3873 5.0277 6.36785 5.1523L5.33311 11.7131L5.30322 11.9044C5.37129 11.4726 5.74051 11.1542 6.17779 11.1542H8.00025C11.5794 11.1542 14.3819 9.70046 15.2005 5.49502C15.2249 5.37064 15.2454 5.25011 15.2642 5.13131C15.0569 5.02196 14.8324 4.92725 14.5908 4.84716C14.5298 4.82694 14.4685 4.80779 14.4069 4.78972" fill="#1F264F"/>
</g>
<defs>
<clipPath id="clip0_34_735">
<rect width="17" height="20.0547" fill="white"/>
</clipPath>
</defs>
</svg>
