<svg width="34" height="34" viewBox="0 0 34 34" fill="none" xmlns="http://www.w3.org/2000/svg">
<g clip-path="url(#clip0_34_740)">
<path d="M24.492 25.622C24.3824 25.5474 24.3069 25.4323 24.2821 25.302C24.2573 25.1717 24.2853 25.037 24.3599 24.9273C26.0663 22.4198 25.4147 18.9924 22.9072 17.286L16.2933 12.7853L14.3242 15.6788C14.2687 15.7608 14.19 15.8244 14.0983 15.8616C14.0065 15.8988 13.9058 15.908 13.8088 15.8879C13.7118 15.8677 13.623 15.8193 13.5537 15.7486C13.4843 15.678 13.4374 15.5883 13.419 15.491L11.9663 7.84974C11.9415 7.71949 11.9695 7.58474 12.0441 7.47513C12.1187 7.36552 12.2338 7.29002 12.364 7.26524L20.0053 5.81247C20.1025 5.79387 20.203 5.80452 20.2941 5.84306C20.3853 5.8816 20.4629 5.94631 20.5172 6.029C20.5715 6.11168 20.6001 6.20862 20.5993 6.30756C20.5985 6.40649 20.5684 6.50296 20.5128 6.58477L18.5437 9.47833L24.3308 13.4165C27.7502 15.7434 28.6388 20.4171 26.3119 23.8364L25.1867 25.4899C25.1121 25.5995 24.997 25.6751 24.8667 25.6998C24.7364 25.7246 24.6016 25.6966 24.492 25.622ZM13.0426 8.15399L14.1766 14.1184L15.7479 11.8093C15.8225 11.6997 15.9376 11.6242 16.0679 11.5994C16.1981 11.5746 16.3329 11.6026 16.4425 11.6772L23.4698 16.4593C24.3113 17.0322 25.0064 17.7949 25.499 18.6858C25.9915 19.5768 26.2678 20.571 26.3055 21.5884C27.1536 18.9202 26.198 15.8967 23.7682 14.2432L17.5677 10.0238C17.4581 9.94916 17.3826 9.83406 17.3578 9.70379C17.3331 9.57352 17.3611 9.43874 17.4357 9.32911L19.007 7.02004L13.0426 8.15399Z" fill="black"/>
<path d="M12.9641 27.4538C12.8545 27.3792 12.779 27.2641 12.7542 27.1338C12.7295 27.0035 12.7575 26.8688 12.8321 26.7591L14.8011 23.8656L9.01401 19.9274C5.59464 17.6005 4.70608 12.9268 7.03297 9.50745L8.15816 7.85398C8.23276 7.74435 8.34786 7.66884 8.47814 7.64407C8.60841 7.61931 8.74319 7.64731 8.85282 7.72191C8.96245 7.79651 9.03796 7.91161 9.06272 8.04189C9.08749 8.17216 9.05949 8.30694 8.98489 8.41657C7.27854 10.9241 7.93017 14.3515 10.4377 16.0579L17.0515 20.5586L19.0206 17.6651C19.0762 17.5831 19.1548 17.5195 19.2466 17.4823C19.3383 17.4451 19.4391 17.4359 19.536 17.456C19.633 17.4762 19.7218 17.5246 19.7912 17.5953C19.8606 17.6659 19.9074 17.7556 19.9258 17.8529L21.3785 25.4942C21.4033 25.6244 21.3753 25.7592 21.3007 25.8688C21.2261 25.9784 21.111 26.0539 20.9808 26.0787L13.3395 27.5314C13.2749 27.5438 13.2085 27.5433 13.1441 27.53C13.0797 27.5167 13.0185 27.4908 12.9641 27.4538ZM7.03931 11.7555C6.19125 14.4237 7.14683 17.4472 9.5766 19.1007L15.7771 23.3201C15.8867 23.3947 15.9622 23.5098 15.987 23.6401C16.0118 23.7704 15.9838 23.9052 15.9092 24.0148L14.3378 26.3239L20.3022 25.1899L19.1683 19.2255L17.597 21.5346C17.5223 21.6442 17.4072 21.7197 17.277 21.7445C17.1467 21.7693 17.0119 21.7413 16.9023 21.6667L9.87506 16.8846C9.03354 16.3117 8.33845 15.549 7.84587 14.658C7.35329 13.7671 7.07701 12.7729 7.03931 11.7555Z" fill="black"/>
</g>
<defs>
<clipPath id="clip0_34_740">
<rect width="24" height="24" fill="white" transform="translate(13.5024) rotate(34.2354)"/>
</clipPath>
</defs>
</svg>
