<svg width="20" height="20" viewBox="0 0 20 20" fill="none" xmlns="http://www.w3.org/2000/svg">
<path d="M9.99984 8.33332C11.8408 8.33332 13.3332 6.84094 13.3332 4.99999C13.3332 3.15904 11.8408 1.66666 9.99984 1.66666C8.15889 1.66666 6.6665 3.15904 6.6665 4.99999C6.6665 6.84094 8.15889 8.33332 9.99984 8.33332Z" stroke="white" stroke-width="1.5"/>
<path d="M16.6649 15C16.6666 14.8633 16.6666 14.7241 16.6666 14.5833C16.6666 12.5125 13.6816 10.8333 9.99992 10.8333C6.31825 10.8333 3.33325 12.5125 3.33325 14.5833C3.33325 16.6541 3.33325 18.3333 9.99992 18.3333C11.8591 18.3333 13.1999 18.2025 14.1666 17.9691" stroke="white" stroke-width="1.5" stroke-linecap="round"/>
</svg>
